<?xml version="1.0" standalone="no"?>
<!DOCTYPE svg PUBLIC "-//W3C//DTD SVG 20010904//EN"
 "http://www.w3.org/TR/2001/REC-SVG-20010904/DTD/svg10.dtd">
<svg version="1.0" xmlns="http://www.w3.org/2000/svg"
 width="401.000000pt" height="401.000000pt" viewBox="0 0 401.000000 401.000000"
 preserveAspectRatio="xMidYMid meet">
<metadata>
Created by potrace 1.11, written by Peter Selinger 2001-2013
</metadata>
<g transform="translate(0.000000,401.000000) scale(0.100000,-0.100000)"
fill="#000000" stroke="none">
<path d="M2057 3273 c-3 -5 -130 -375 -282 -823 -153 -448 -281 -819 -285
-823 -4 -4 -62 109 -130 253 l-123 260 -244 0 -243 0 0 -170 0 -169 140 -3
141 -3 251 -532 c139 -293 255 -529 258 -525 4 4 175 501 380 1105 l373 1097
559 0 558 0 0 170 0 170 -674 0 c-371 0 -677 -3 -679 -7z"/>
</g>
</svg>
